<svg xmlns="http://www.w3.org/2000/svg" viewBox="765.47 872.2 158.53 158.47">
  <g>
    <!-- First path in green -->
    <path fill="#BFF747" d="M791.1,952c-1.3,40.1,32.4,75.2,72.5,75.6-47.5,14.5-99.5-24.3-98.1-74.3-.8-38.9,33-80.1,73.8-69.3,21.2,5.7,39.2,22,47.3,42.4-26-43.4-94.6-25-95.4,25.5Z"/>
    <!-- Second path in blue -->
    <path fill="#55E6A5" d="M923.8,949.2c0,22.3-9.4,42.8-25.2,57.1-13.6,12.3-32.6,17-50.2,11.7-.5-.1-1-.3-1.4-.4-20.6-6.7-36.6-22.2-44.3-41.5,2.2,3.6,4.9,7,8,10,9.7,9.4,22.4,14.6,36,14.6s26.3-5.2,36-14.6c9.7-9.4,15.2-22,15.5-35.5,0-.4,0-.9,0-1.3s0-.9,0-1.3c-.6-31.6-21.1-59.4-51.1-69.2-6.9-2.3-14-3.5-21.3-3.7,6.8-1.9,13.8-2.9,21-2.9s18.8,1.7,27.6,5.1l.7.3c29.7,11.7,48.9,39.9,48.9,71.8Z"/>
  </g>
</svg>