<svg xmlns="http://www.w3.org/2000/svg" xmlns:xlink="http://www.w3.org/1999/xlink" id="Layer_1" version="1.1" viewBox="765.47 872.2 872.03 158.47">
  <!-- Generator: Adobe Illustrator 29.4.0, SVG Export Plug-In . SVG Version: 2.1.0 Build 152)  -->
  <defs>
    <style>
      .st0 {
        fill: url(#linear-gradient2);
      }

      .st1 {
        fill: url(#linear-gradient36);
      }

      .st2 {
        fill: #BFF747;
      }

      .st3 {
        fill: url(#linear-gradient39);
      }

      .st4 {
        fill: url(#linear-gradient34);
      }

      .st5 {
        fill: url(#linear-gradient33);
      }

      .st6 {
        fill: url(#linear-gradient10);
      }

      .st7 {
        fill: url(#linear-gradient32);
      }

      .st8 {
        fill: url(#linear-gradient21);
      }

      .st9 {
        fill: url(#linear-gradient37);
      }

      .st10 {
        fill: url(#linear-gradient27);
      }

      .st11 {
        fill: url(#linear-gradient53);
      }

      .st12 {
        fill: url(#linear-gradient35);
      }

      .st13 {
        fill: url(#linear-gradient26);
      }

      .st14 {
        fill: url(#linear-gradient1);
      }

      .st15 {
        fill: url(#linear-gradient9);
      }

      .st16 {
        fill: url(#linear-gradient18);
      }

      .st17 {
        fill: url(#linear-gradient23);
      }

      .st18 {
        fill: url(#linear-gradient43);
      }

      .st19 {
        fill: url(#linear-gradient8);
      }

      .st20 {
        fill: url(#linear-gradient11);
      }

      .st21 {
        fill: url(#linear-gradient16);
      }

      .st22 {
        fill: url(#linear-gradient24);
      }

      .st23 {
        fill: url(#linear-gradient30);
      }

      .st24 {
        fill: url(#linear-gradient46);
      }

      .st25 {
        fill: url(#linear-gradient22);
      }

      .st26 {
        fill: #55E6A5;
      }

      .st27 {
        fill: url(#linear-gradient29);
      }

      .st28 {
        fill: url(#linear-gradient49);
      }

      .st29 {
        fill: url(#linear-gradient19);
      }

      .st30 {
        fill: url(#linear-gradient12);
      }

      .st31 {
        fill: url(#linear-gradient42);
      }

      .st32 {
        fill: url(#linear-gradient28);
      }

      .st33 {
        fill: url(#linear-gradient40);
      }

      .st34 {
        fill: url(#linear-gradient7);
      }

      .st35 {
        fill: url(#linear-gradient20);
      }

      .st36 {
        fill: url(#linear-gradient4);
      }

      .st37 {
        fill: url(#linear-gradient31);
      }

      .st38 {
        fill: url(#linear-gradient14);
      }

      .st39 {
        fill: url(#linear-gradient5);
      }

      .st40 {
        fill: #999;
      }

      .st41 {
        fill: url(#linear-gradient3);
      }

      .st42 {
        fill: url(#linear-gradient38);
      }

      .st43 {
        fill: url(#linear-gradient25);
      }

      .st44 {
        fill: url(#linear-gradient52);
      }

      .st45 {
        fill: url(#linear-gradient15);
      }

      .st46 {
        fill: url(#linear-gradient17);
      }

      .st47 {
        fill: url(#linear-gradient50);
      }

      .st48 {
        fill: url(#linear-gradient51);
      }

      .st49 {
        fill: url(#linear-gradient6);
      }

      .st50 {
        fill: url(#linear-gradient48);
      }

      .st51 {
        fill: url(#linear-gradient13);
      }

      .st52 {
        fill: url(#linear-gradient45);
      }

      .st53 {
        fill: url(#linear-gradient47);
      }

      .st54 {
        fill: url(#linear-gradient);
      }

      .st55 {
        fill: url(#linear-gradient44);
      }

      .st56 {
        fill: url(#linear-gradient41);
      }
    </style>
    <linearGradient id="linear-gradient" x1="448.8" y1="923.4" x2="662.1" y2="1062" gradientUnits="userSpaceOnUse">
      <stop offset="0" stop-color="#55E6A5"/>
      <stop offset=".2" stop-color="#55E6A5"/>
      <stop offset=".4" stop-color="#55E6A5"/>
      <stop offset=".8" stop-color="#55E6A5"/>
      <stop offset="1" stop-color="#55E6A5"/>
    </linearGradient>
    <linearGradient id="linear-gradient1" x1="450.6" y1="1093.8" x2="457.6" y2="1098.4" gradientUnits="userSpaceOnUse">
      <stop offset="0" stop-color="#55E6A5"/>
      <stop offset="1" stop-color="#55E6A5"/>
    </linearGradient>
    <linearGradient id="linear-gradient2" x1="446.2" y1="1112.9" x2="453.9" y2="1117.9" xlink:href="#linear-gradient1"/>
    <linearGradient id="linear-gradient3" x1="478.3" y1="1117.2" x2="488.4" y2="1123.8" xlink:href="#linear-gradient1"/>
    <linearGradient id="linear-gradient4" x1="551.9" y1="1140.1" x2="557" y2="1143.5" xlink:href="#linear-gradient1"/>
    <linearGradient id="linear-gradient5" x1="415.5" y1="1000.2" x2="420.3" y2="1003.3" xlink:href="#linear-gradient1"/>
    <linearGradient id="linear-gradient6" x1="416.6" y1="1022.8" x2="421.8" y2="1026.2" xlink:href="#linear-gradient1"/>
    <linearGradient id="linear-gradient7" x1="395.3" y1="1033.6" x2="402.9" y2="1038.6" xlink:href="#linear-gradient1"/>
    <linearGradient id="linear-gradient8" x1="421" y1="1049.1" x2="433.5" y2="1057.3" xlink:href="#linear-gradient1"/>
    <linearGradient id="linear-gradient9" x1="499.9" y1="901.9" x2="507.6" y2="906.8" xlink:href="#linear-gradient1"/>
    <linearGradient id="linear-gradient10" x1="463.3" y1="911.4" x2="470.9" y2="916.4" xlink:href="#linear-gradient1"/>
    <linearGradient id="linear-gradient11" x1="435.4" y1="900.5" x2="447.6" y2="908.4" xlink:href="#linear-gradient1"/>
    <linearGradient id="linear-gradient12" x1="466.4" y1="878" x2="479.5" y2="886.5" xlink:href="#linear-gradient1"/>
    <linearGradient id="linear-gradient13" x1="513.8" y1="887.1" x2="521.5" y2="892.1" xlink:href="#linear-gradient1"/>
    <linearGradient id="linear-gradient14" x1="523.1" y1="902" x2="530.8" y2="907" xlink:href="#linear-gradient1"/>
    <linearGradient id="linear-gradient15" x1="570.5" y1="921.4" x2="576.1" y2="925.1" xlink:href="#linear-gradient1"/>
    <linearGradient id="linear-gradient16" x1="585.6" y1="929.4" x2="594.9" y2="935.4" xlink:href="#linear-gradient1"/>
    <linearGradient id="linear-gradient17" x1="595.8" y1="949" x2="600.2" y2="951.8" xlink:href="#linear-gradient1"/>
    <linearGradient id="linear-gradient18" x1="565" y1="901.7" x2="573.5" y2="907.3" xlink:href="#linear-gradient1"/>
    <linearGradient id="linear-gradient19" x1="385.3" y1="974.1" x2="392.9" y2="979" xlink:href="#linear-gradient1"/>
    <linearGradient id="linear-gradient20" x1="404.1" y1="953.8" x2="408.2" y2="956.4" xlink:href="#linear-gradient1"/>
    <linearGradient id="linear-gradient21" x1="401.4" y1="922.4" x2="409" y2="927.4" xlink:href="#linear-gradient1"/>
    <linearGradient id="linear-gradient22" x1="451.6" y1="923.2" x2="456.6" y2="926.5" xlink:href="#linear-gradient1"/>
    <linearGradient id="linear-gradient23" x1="496.3" y1="885" x2="501.7" y2="888.5" xlink:href="#linear-gradient1"/>
    <linearGradient id="linear-gradient24" x1="512" y1="869.2" x2="524.3" y2="877.2" xlink:href="#linear-gradient1"/>
    <linearGradient id="linear-gradient25" x1="397.4" y1="897.6" x2="410.3" y2="906" xlink:href="#linear-gradient1"/>
    <linearGradient id="linear-gradient26" x1="423.1" y1="922.4" x2="430.8" y2="927.4" xlink:href="#linear-gradient1"/>
    <linearGradient id="linear-gradient27" x1="378.1" y1="933.3" x2="388.9" y2="940.3" xlink:href="#linear-gradient1"/>
    <linearGradient id="linear-gradient28" x1="372.9" y1="955.6" x2="377.8" y2="958.8" xlink:href="#linear-gradient1"/>
    <linearGradient id="linear-gradient29" x1="491.8" y1="865.1" x2="499.5" y2="870.1" xlink:href="#linear-gradient1"/>
    <linearGradient id="linear-gradient30" x1="453.7" y1="867.9" x2="461.4" y2="872.9" xlink:href="#linear-gradient1"/>
    <linearGradient id="linear-gradient31" x1="442.2" y1="882.5" x2="449.9" y2="887.5" xlink:href="#linear-gradient1"/>
    <linearGradient id="linear-gradient32" x1="419" y1="885.7" x2="426.7" y2="890.6" xlink:href="#linear-gradient1"/>
    <linearGradient id="linear-gradient33" x1="423.3" y1="948.5" x2="436.7" y2="957.3" xlink:href="#linear-gradient1"/>
    <linearGradient id="linear-gradient34" x1="415.2" y1="980.1" x2="422.9" y2="985.1" xlink:href="#linear-gradient1"/>
    <linearGradient id="linear-gradient35" x1="393" y1="994.4" x2="407" y2="1003.5" xlink:href="#linear-gradient1"/>
    <linearGradient id="linear-gradient36" x1="385.3" y1="974.1" x2="392.9" y2="979" xlink:href="#linear-gradient1"/>
    <linearGradient id="linear-gradient37" x1="363.6" y1="991.4" x2="374.1" y2="998.2" xlink:href="#linear-gradient1"/>
    <linearGradient id="linear-gradient38" x1="391.9" y1="1085.1" x2="403.7" y2="1092.9" xlink:href="#linear-gradient1"/>
    <linearGradient id="linear-gradient39" x1="444" y1="1128.8" x2="448.2" y2="1131.5" xlink:href="#linear-gradient1"/>
    <linearGradient id="linear-gradient40" x1="446.2" y1="1112.9" x2="453.9" y2="1117.9" xlink:href="#linear-gradient1"/>
    <linearGradient id="linear-gradient41" x1="417.4" y1="1110.9" x2="422.9" y2="1114.5" xlink:href="#linear-gradient1"/>
    <linearGradient id="linear-gradient42" x1="464.9" y1="1137.4" x2="472.6" y2="1142.4" xlink:href="#linear-gradient1"/>
    <linearGradient id="linear-gradient43" x1="481.1" y1="1142.8" x2="492" y2="1149.9" xlink:href="#linear-gradient1"/>
    <linearGradient id="linear-gradient44" x1="523.7" y1="1143.9" x2="531.3" y2="1148.9" xlink:href="#linear-gradient1"/>
    <linearGradient id="linear-gradient45" x1="374" y1="1055.2" x2="387.4" y2="1063.9" xlink:href="#linear-gradient1"/>
    <linearGradient id="linear-gradient46" x1="423.5" y1="1077.5" x2="437" y2="1086.3" xlink:href="#linear-gradient1"/>
    <linearGradient id="linear-gradient47" x1="445" y1="1112.1" x2="455.2" y2="1118.7" xlink:href="#linear-gradient1"/>
    <linearGradient id="linear-gradient48" x1="365.6" y1="1013.8" x2="373.3" y2="1018.8" xlink:href="#linear-gradient1"/>
    <linearGradient id="linear-gradient49" x1="395.3" y1="1033.6" x2="402.9" y2="1038.6" xlink:href="#linear-gradient1"/>
    <linearGradient id="linear-gradient50" x1="395.7" y1="1066" x2="401" y2="1069.5" xlink:href="#linear-gradient1"/>
    <linearGradient id="linear-gradient51" x1="548.9" y1="908.9" x2="556.5" y2="913.9" xlink:href="#linear-gradient1"/>
    <linearGradient id="linear-gradient52" x1="543.7" y1="885.4" x2="551.4" y2="890.4" xlink:href="#linear-gradient1"/>
    <linearGradient id="linear-gradient53" x1="520.7" y1="900.4" x2="533.2" y2="908.5" xlink:href="#linear-gradient1"/>
  </defs>

  <g>
    <g>
      <path class="st2" d="M983.9,998.9l31.6-86.3h18l-40,101.9h-19.7l-40-101.9h18.2l31.8,86.3Z"/>
      <path class="st2" d="M1130.1,922c7.7,7.5,11.5,18.3,11.5,32.5v60.1h-16.7v-57.7c0-10.2-2.5-18-7.6-23.3-5.1-5.4-12-8.1-20.8-8.1s-16,2.8-21.3,8.4c-5.3,5.6-7.9,13.7-7.9,24.4v56.4h-16.9v-101.9h16.9v14.5c3.3-5.2,7.9-9.2,13.7-12.1,5.8-2.9,12.1-4.3,19.1-4.3,12.4,0,22.4,3.8,30.1,11.3Z"/>
      <path class="st2" d="M1169.9,892.7c-2.2-2.2-3.3-5-3.3-8.2s1.1-6,3.3-8.2c2.2-2.2,5-3.3,8.2-3.3s5.7,1.1,7.9,3.3c2.2,2.2,3.3,5,3.3,8.2s-1.1,6-3.3,8.2c-2.2,2.2-4.8,3.3-7.9,3.3s-6-1.1-8.2-3.3ZM1186.3,912.6v101.9h-16.9v-101.9h16.9Z"/>
      <path class="st2" d="M1268.3,1014.6l-24.2-37.9-23.3,37.9h-17.7l32.9-50.6-32.9-51.3h19.2l24.2,37.8,23.1-37.8h17.7l-32.7,50.4,32.9,51.5h-19.2Z"/>
      <path class="st26" d="M1322.4,1011.3c-6.8-3-12.1-7.3-15.9-12.6-3.8-5.4-5.8-11.6-6-18.7h18c.6,6.1,3.1,11.2,7.5,15.3,4.4,4.2,10.8,6.2,19.3,6.2s14.4-2,19.1-6c4.6-4,7-9.2,7-15.5s-1.4-9-4.1-12.1c-2.7-3.1-6.1-5.5-10.2-7.1-4.1-1.6-9.6-3.3-16.6-5.2-8.6-2.2-15.4-4.5-20.6-6.7-5.1-2.2-9.6-5.7-13.2-10.5-3.7-4.8-5.5-11.2-5.5-19.3s1.8-13.3,5.4-18.8c3.6-5.5,8.7-9.7,15.2-12.6,6.5-3,14-4.5,22.4-4.5,12.2,0,22.1,3,29.9,9.1,7.7,6.1,12.1,14.1,13.1,24.2h-18.6c-.6-5-3.2-9.3-7.8-13.1-4.6-3.8-10.7-5.7-18.2-5.7s-12.8,1.8-17.3,5.5c-4.5,3.7-6.7,8.8-6.7,15.3s1.3,8.6,4,11.5c2.7,3,6,5.2,9.9,6.8,3.9,1.6,9.4,3.3,16.5,5.3,8.6,2.4,15.4,4.7,20.6,7,5.2,2.3,9.7,5.8,13.4,10.6,3.7,4.8,5.6,11.3,5.6,19.4s-1.7,12.3-5,17.9c-3.3,5.6-8.3,10.1-14.9,13.6-6.6,3.5-14.3,5.2-23.3,5.2s-16.2-1.5-23-4.6Z"/>
      <path class="st26" d="M1574,926.6h-21.4v88h-16.9v-88h-13.2v-14h13.2v-7.3c0-11.4,2.9-19.7,8.8-25,5.9-5.3,15.3-7.9,28.4-7.9v14.1c-7.4,0-12.7,1.5-15.7,4.4-3,2.9-4.6,7.7-4.6,14.4v7.3h21.4v14Z"/>
      <path class="st26" d="M1610.8,926.6v60.1c0,5,1.1,8.5,3.2,10.5,2.1,2,5.8,3.1,11,3.1h12.5v14.3h-15.3c-9.4,0-16.5-2.2-21.2-6.5-4.7-4.3-7.1-11.5-7.1-21.4v-99.7h16.9v25.7h26.6v14h-26.6Z"/>
      <g>
        <path class="st2" d="M791.1,952c-1.3,40.1,32.4,75.2,72.5,75.6-47.5,14.5-99.5-24.3-98.1-74.3-.8-38.9,33-80.1,73.8-69.3,21.2,5.7,39.2,22,47.3,42.4-26-43.4-94.6-25-95.4,25.5Z"/>
        <path class="st2" d="M923.8,949.2c0,22.3-9.4,42.8-25.2,57.1-13.6,12.3-32.6,17-50.2,11.7-.5-.1-1-.3-1.4-.4-20.6-6.7-36.6-22.2-44.3-41.5,2.2,3.6,4.9,7,8,10,9.7,9.4,22.4,14.6,36,14.6s26.3-5.2,36-14.6c9.7-9.4,15.2-22,15.5-35.5,0-.4,0-.9,0-1.3s0-.9,0-1.3c-.6-31.6-21.1-59.4-51.1-69.2-6.9-2.3-14-3.5-21.3-3.7,6.8-1.9,13.8-2.9,21-2.9s18.8,1.7,27.6,5.1l.7.3c29.7,11.7,48.9,39.9,48.9,71.8Z"/>
      </g>
      <g>
        <path class="st26" d="M1423.1,964c-.9,26.6,21.5,49.9,48.1,50.2-31.6,9.6-66.1-16.2-65.1-49.3-.5-25.8,21.9-53.2,49-46,14.1,3.8,26,14.6,31.4,28.1-17.3-28.8-62.8-16.6-63.4,17Z"/>
        <path class="st26" d="M1511.2,962.2c0,14.8-6.2,28.4-16.7,37.9-9,8.2-21.6,11.3-33.3,7.8-.3,0-.6-.2-1-.3-13.7-4.5-24.3-14.7-29.4-27.6,1.5,2.4,3.2,4.6,5.3,6.7,6.4,6.3,14.9,9.7,23.9,9.7s17.5-3.4,23.9-9.7c6.4-6.3,10.1-14.6,10.3-23.6,0-.3,0-.6,0-.9s0-.6,0-.9c-.4-21-14-39.4-33.9-46-4.6-1.5-9.3-2.3-14.2-2.4,4.5-1.3,9.2-1.9,13.9-1.9s12.5,1.1,18.3,3.4l.5.2c19.7,7.8,32.4,26.5,32.4,47.7Z"/>
      </g>
    </g>

  </g>
</svg>